<svg width="164" height="36" viewBox="0 0 164 36" fill="none" xmlns="http://www.w3.org/2000/svg">
<path d="M19.4427 5.08984C24.1305 5.08842 27.9441 8.83871 27.9456 13.4815C27.947 18.1244 24.1356 21.8769 19.4478 21.8784C16.7577 21.8792 14.6587 20.8107 12.8342 18.76C11.6587 17.4388 9.09413 15.0773 7.57726 14.09C7.36978 13.9549 7.24631 13.7234 7.25008 13.4765C7.25396 13.2297 7.38451 13.002 7.59595 12.8733C9.12261 11.9451 11.6449 9.54711 12.831 8.21223C14.6542 6.1604 16.7525 5.09066 19.4427 5.08984Z" fill="url(#paint0_linear_6005_1770)"/>
<path d="M15.8105 13.8234C11.1229 13.7943 7.28697 17.5221 7.25798 22.1648C7.22899 26.8076 11.0181 30.5825 15.7057 30.6116C18.3958 30.6283 20.5011 29.5722 22.3377 27.5323C23.521 26.2181 26.0996 23.8717 27.6223 22.8934C27.8306 22.7596 27.9554 22.5288 27.9531 22.2818C27.9507 22.0349 27.8215 21.8065 27.6109 21.6766C26.0897 20.7394 23.5818 18.3265 22.4036 16.9847C20.5926 14.9222 18.5006 13.8401 15.8105 13.8234Z" fill="url(#paint1_linear_6005_1770)"/>
<path d="M36.6632 26.5V9.34H39.8552L47.5832 22.228H47.6312V9.34H50.4872V26.5H47.3192L39.5672 13.66H39.5192V26.5H36.6632ZM58.8154 24.796C60.9034 24.796 61.7434 23.5 61.9594 22.756H64.4794C63.8554 25.084 62.0314 26.86 58.8874 26.86C55.0714 26.86 52.7434 24.22 52.7434 20.38C52.7434 16.396 55.0714 13.9 58.7674 13.9C62.7274 13.9 64.6714 16.66 64.6714 21.028H55.2634C55.2634 23.092 56.5834 24.796 58.8154 24.796ZM58.7674 15.892C56.7274 15.892 55.2634 17.26 55.2634 19.156H62.1514C62.1514 17.26 60.8074 15.892 58.7674 15.892ZM65.0955 14.236H67.9515L70.7355 18.556H70.7835L73.5675 14.236H76.4235L72.2955 20.236L76.8795 26.5H73.9515L70.7835 21.892H70.7355L67.6155 26.5H64.6635L69.2475 20.236L65.0955 14.236ZM85.2996 17.452C85.2996 16.564 84.7716 15.892 83.0916 15.892C81.0756 15.892 80.3316 16.516 80.2116 18.1H77.7636C77.8836 15.748 79.3956 13.9 83.0916 13.9C85.8036 13.9 87.8196 14.932 87.8196 18.196V24.028C87.8196 24.892 88.0116 25.348 88.9956 25.252V26.452C88.4196 26.668 88.0116 26.716 87.5316 26.716C86.1876 26.716 85.5636 26.236 85.3236 25.036H85.2756C84.5076 26.116 83.1156 26.86 81.2196 26.86C78.7236 26.86 77.1876 25.42 77.1876 23.356C77.1876 20.668 79.1796 19.828 82.2516 19.228C84.1476 18.868 85.2996 18.628 85.2996 17.452ZM81.7716 24.868C83.8596 24.868 85.2996 23.836 85.2996 21.844V19.996C84.8916 20.284 83.9076 20.572 82.7316 20.812C80.6436 21.268 79.7316 21.868 79.7316 23.116C79.7316 24.244 80.4036 24.868 81.7716 24.868ZM92.0942 26.692C91.2062 26.692 90.5342 26.092 90.5342 25.132C90.5342 24.196 91.2062 23.572 92.0942 23.572C92.9582 23.572 93.6302 24.196 93.6302 25.132C93.6302 26.092 92.9582 26.692 92.0942 26.692ZM102.417 16.276C106.089 17.212 108.873 18.004 108.873 21.844C108.873 24.58 106.809 26.86 102.489 26.86C98.2892 26.86 95.0972 24.676 94.9292 20.788H97.7852C97.9292 22.972 99.4172 24.412 102.489 24.412C105.033 24.412 106.017 23.284 106.017 21.964C106.017 19.924 104.553 19.54 101.169 18.7C98.4812 18.028 95.5772 16.996 95.5772 13.732C95.5772 10.684 97.9292 8.98 101.673 8.98C105.441 8.98 108.177 10.948 108.417 14.476H105.561C105.297 12.484 104.049 11.428 101.673 11.428C99.6332 11.428 98.4092 12.196 98.4092 13.468C98.4092 15.34 100.017 15.676 102.417 16.276ZM116.622 16.3H114.318V22.948C114.318 24.34 114.99 24.508 116.622 24.412V26.476C116.118 26.596 115.566 26.668 114.894 26.668C112.878 26.668 111.774 25.756 111.774 23.164V16.3H109.998V14.236H111.774V10.372H114.318V14.236H116.622V16.3ZM126.518 14.236H129.038V26.5H126.518V24.916H126.47C125.822 25.876 124.55 26.836 122.438 26.836C120.158 26.836 118.358 25.516 118.358 22.708V14.236H120.902V21.988C120.902 23.644 121.598 24.7 123.326 24.7C125.27 24.7 126.518 23.524 126.518 21.7V14.236ZM140.054 9.34H142.574V26.5H140.054V25.084H140.006C139.358 25.924 138.158 26.86 136.262 26.86C133.118 26.86 130.79 24.412 130.79 20.38C130.79 16.348 133.118 13.9 136.262 13.9C138.158 13.9 139.358 14.788 140.006 15.724H140.054V9.34ZM136.694 24.796C138.758 24.796 140.03 23.092 140.03 20.38C140.03 17.644 138.758 15.964 136.694 15.964C134.486 15.964 133.31 17.98 133.31 20.38C133.31 22.78 134.486 24.796 136.694 24.796ZM146.214 12.172C145.518 12.172 144.798 11.692 144.798 10.828C144.798 9.964 145.518 9.508 146.214 9.508C146.958 9.508 147.654 9.964 147.654 10.828C147.654 11.692 146.958 12.172 146.214 12.172ZM144.966 14.236H147.486V26.5H144.966V14.236ZM155.568 26.86C151.728 26.86 149.4 24.196 149.4 20.38C149.4 16.564 151.728 13.9 155.568 13.9C159.408 13.9 161.736 16.564 161.736 20.38C161.736 24.196 159.408 26.86 155.568 26.86ZM155.568 24.796C157.968 24.796 159.216 22.9 159.216 20.38C159.216 17.836 157.968 15.964 155.568 15.964C153.168 15.964 151.92 17.836 151.92 20.38C151.92 22.9 153.168 24.796 155.568 24.796Z" fill="white"/>
<defs>
<linearGradient id="paint0_linear_6005_1770" x1="27.9456" y1="13.4815" x2="7.25" y2="13.4878" gradientUnits="userSpaceOnUse">
<stop stop-color="white" stop-opacity="0.8"/>
<stop offset="1" stop-color="white" stop-opacity="0.5"/>
</linearGradient>
<linearGradient id="paint1_linear_6005_1770" x1="7.25798" y1="22.1648" x2="27.9531" y2="22.294" gradientUnits="userSpaceOnUse">
<stop stop-color="white" stop-opacity="0.8"/>
<stop offset="1" stop-color="white" stop-opacity="0.5"/>
</linearGradient>
</defs>
</svg>
