<svg width="116" height="142" viewBox="0 0 116 142" fill="none" xmlns="http://www.w3.org/2000/svg">
<path d="M67.7372 2.25216e-06C93.7803 -0.00790886 114.967 20.827 114.975 46.6204C114.983 72.4141 93.8087 93.2617 67.7656 93.2697C52.8203 93.2741 41.1594 87.3381 31.0234 75.9452C24.4927 68.6052 10.2452 55.4857 1.81811 50.0008C0.665445 49.2506 -0.0205101 47.9644 0.000467664 46.5924C0.0219788 45.2212 0.747264 43.9564 1.92193 43.2417C10.4034 38.0848 24.4158 24.7626 31.0056 17.3466C41.1345 5.94756 52.7918 0.00453559 67.7372 2.25216e-06Z" fill="url(#paint0_linear_6016_1672)"/>
<path d="M47.5621 48.5205C21.5194 48.3587 0.20886 69.0685 0.0477932 94.8614C-0.113273 120.655 20.9372 141.627 46.9798 141.788C61.9247 141.881 73.6207 136.014 83.8238 124.681C90.3981 117.38 104.723 104.344 113.183 98.9094C114.34 98.1658 115.034 96.8836 115.021 95.5116C115.007 94.14 114.29 92.8711 113.119 92.1494C104.669 86.9427 90.7358 73.5378 84.1901 66.0831C74.1292 54.6249 62.5069 48.6129 47.5621 48.5205Z" fill="url(#paint1_linear_6016_1672)"/>
<defs>
<linearGradient id="paint0_linear_6016_1672" x1="114.975" y1="46.6204" x2="-2.04793e-05" y2="46.6555" gradientUnits="userSpaceOnUse">
<stop stop-color="white" stop-opacity="0.8"/>
<stop offset="1" stop-color="white" stop-opacity="0.5"/>
</linearGradient>
<linearGradient id="paint1_linear_6016_1672" x1="0.0477932" y1="94.8614" x2="115.021" y2="95.5791" gradientUnits="userSpaceOnUse">
<stop stop-color="white" stop-opacity="0.8"/>
<stop offset="1" stop-color="white" stop-opacity="0.5"/>
</linearGradient>
</defs>
</svg>
