<svg width="42" height="42" viewBox="0 0 42 42" fill="none" xmlns="http://www.w3.org/2000/svg">
<path d="M3.50394 14.875L3.50016 24.4947C3.4979 30.2713 3.49676 33.1597 5.29083 34.9545C7.08491 36.7493 9.97323 36.7493 15.7499 36.7495L26.2517 36.7496C32.0257 36.7498 34.9125 36.75 36.7064 34.9564C38.5003 33.1628 38.501 30.2759 38.5021 24.5021L38.504 14.875" stroke="#FF3900" stroke-width="2.625" stroke-linecap="round" stroke-linejoin="round"/>
<path d="M14.875 11.375C14.875 8.9172 14.875 7.68829 15.4649 6.8055C15.7202 6.42334 16.0483 6.09521 16.4305 5.83985C17.3133 5.25 18.5422 5.25 21.0001 5.25C23.4578 5.25 24.6868 5.25 25.5695 5.83985C25.9517 6.09521 26.2798 6.42334 26.5351 6.8055C27.1251 7.68829 27.1251 8.9172 27.1251 11.375" stroke="#FF3900" stroke-width="2.625" stroke-linecap="round" stroke-linejoin="round"/>
<path d="M34.9988 11.3753L7.00033 11.375C5.06755 11.3751 3.50018 12.9424 3.5 14.8752C3.50018 18.7409 6.63493 21.8757 10.5006 21.876H31.4985C35.3642 21.8759 38.4988 18.7413 38.499 14.8755C38.4988 12.9427 36.9315 11.3754 34.9988 11.3753Z" stroke="#FF3900" stroke-width="2.625" stroke-linecap="round" stroke-linejoin="round"/>
<path d="M17.5 21.875V23.625C17.5 24.4388 17.5 24.8456 17.5895 25.1793C17.8322 26.0853 18.5397 26.7929 19.4455 27.0356C19.7794 27.125 20.1863 27.125 21.0001 27.125C21.8138 27.125 22.2205 27.125 22.5544 27.0356C23.4602 26.7929 24.1679 26.0853 24.4106 25.1793C24.5001 24.8456 24.5001 24.4388 24.5001 23.625V21.875" stroke="#FF3900" stroke-width="2.625" stroke-linecap="round" stroke-linejoin="round"/>
</svg>
