<svg width="136" height="40" viewBox="0 0 136 40" fill="none" xmlns="http://www.w3.org/2000/svg">
<path fill-rule="evenodd" clip-rule="evenodd" d="M20.2516 5.65234C21.2335 5.65234 22.0294 6.44828 22.0294 7.43012V13.7533C22.0667 13.7629 22.1037 13.7728 22.1407 13.7831L26.191 6.76779L27.3884 7.45914C28.2387 7.95007 28.53 9.03732 28.0391 9.88763L24.8772 15.3642C24.9044 15.3909 24.9315 15.4179 24.9583 15.4452L31.9748 11.3942L32.6662 12.5917C33.1571 13.442 32.8658 14.5292 32.0155 15.0202L26.5408 18.181C26.5513 18.2187 26.5614 18.2567 26.5713 18.2947H34.671V19.6774C34.671 20.6593 33.8751 21.4552 32.8932 21.4552H26.5714C26.5618 21.4926 26.5518 21.5299 26.5415 21.5671L33.5551 25.6164L32.8637 26.8139C32.3728 27.6643 31.2855 27.9555 30.4352 27.4647L24.96 24.3035C24.9331 24.3309 24.9059 24.3581 24.8785 24.3851L28.9289 31.4004L27.7315 32.0918C26.8812 32.5827 25.7939 32.2914 25.303 31.4411L22.1425 25.9669C22.1049 25.9773 22.0673 25.9875 22.0294 25.9971V34.0968H20.6467C19.6649 34.0968 18.869 33.3009 18.869 32.319V25.997C18.8311 25.9873 18.7934 25.9771 18.7558 25.9667L14.7059 32.9817L13.5083 32.2903C12.658 31.7994 12.3667 30.7121 12.8577 29.8618L16.0199 24.3845C15.9923 24.3575 15.9651 24.3301 15.9379 24.3026L8.92141 28.3536L8.23 27.156C7.7391 26.3057 8.03044 25.2185 8.88073 24.7275L14.3571 21.5658C14.3469 21.5291 14.3371 21.4922 14.3275 21.4552H6.22656V20.0725C6.22656 19.0907 7.0225 18.2947 8.00434 18.2947H14.3277C14.3373 18.2571 14.3474 18.2196 14.3578 18.1824L7.34115 14.1313L8.03251 12.9339C8.52342 12.0835 9.61065 11.7922 10.461 12.2831L15.9396 15.4462C15.9666 15.4187 15.9938 15.3915 16.0212 15.3647L11.9696 8.34717L13.1671 7.65582C14.0174 7.1649 15.1047 7.45623 15.5955 8.30653L18.7575 13.7833C18.7946 13.773 18.8316 13.7631 18.869 13.7535V5.65234H20.2516ZM23.2481 21.3451L23.1247 21.5589C22.8694 21.9636 22.5249 22.3064 22.1187 22.5595L21.9346 22.6659C21.5099 22.8923 21.0276 23.0246 20.5154 23.0351H20.3835C19.8533 23.0243 19.3552 22.8828 18.9199 22.6417L18.8235 22.5859C18.3681 22.3122 17.9874 21.9269 17.719 21.468L17.7019 21.4384C17.4391 20.9774 17.289 20.4439 17.289 19.8753C17.289 18.1297 18.7039 16.7147 20.4495 16.7147C21.0018 16.7147 21.5209 16.8563 21.9726 17.1053L22.0817 17.1683C22.5161 17.4307 22.8822 17.7949 23.1471 18.2277L23.2281 18.3679C23.4618 18.7979 23.5987 19.2881 23.6093 19.8093V19.9411C23.5989 20.4473 23.4696 20.9243 23.2481 21.3451Z" fill="white" fill-opacity="0.6"/>
<path d="M48.3125 26.9858V13.1831H56.2698C58.1187 13.1831 59.5196 13.496 60.4725 14.1218C61.4396 14.7333 61.9232 15.6506 61.9232 16.8738C61.9232 17.656 61.7312 18.2746 61.3472 18.7298C60.9632 19.1706 60.4156 19.4978 59.7045 19.7111C59.0076 19.9244 58.1827 20.0595 57.2298 20.1164L57.3152 19.9671C58.0121 19.9813 58.6663 20.0311 59.2778 20.1164C59.9036 20.2018 60.4512 20.3582 60.9205 20.5858C61.3898 20.8133 61.7596 21.1333 62.0298 21.5458C62.3001 21.944 62.4352 22.4702 62.4352 23.1244C62.4352 23.9778 62.2076 24.6889 61.7525 25.2578C61.2974 25.8124 60.6645 26.232 59.8538 26.5164C59.0432 26.8009 58.1045 26.9573 57.0378 26.9858H48.3125ZM51.1498 24.6391H56.7392C57.6352 24.6391 58.3249 24.4969 58.8085 24.2124C59.2921 23.9138 59.5338 23.4444 59.5338 22.8044C59.5338 22.3351 59.3916 21.9938 59.1072 21.7804C58.8227 21.5671 58.4458 21.4391 57.9765 21.3964C57.5072 21.3395 57.0023 21.3111 56.4618 21.3111H51.1498V24.6391ZM51.1498 19.0284H56.1632C57.0592 19.0284 57.7489 18.9004 58.2325 18.6444C58.7161 18.3742 58.9578 17.9191 58.9578 17.2791C58.9578 16.6391 58.7161 16.1911 58.2325 15.9351C57.7489 15.6649 57.1089 15.5298 56.3125 15.5298H51.1498V19.0284ZM64.5957 16.3831H67.369V26.9858H64.5957V16.3831ZM71.4437 18.6658C70.6473 18.6658 69.9575 18.8222 69.3744 19.1351C68.7913 19.4338 68.3219 19.8035 67.9664 20.2444C67.6108 20.6853 67.3619 21.112 67.2197 21.5244L67.1984 20.3511C67.2126 20.1804 67.2695 19.9315 67.369 19.6044C67.4686 19.2631 67.6179 18.9004 67.817 18.5164C68.0161 18.1182 68.2793 17.7413 68.6064 17.3858C68.9335 17.016 69.3317 16.7173 69.801 16.4898C70.2704 16.2622 70.8179 16.1484 71.4437 16.1484V18.6658ZM76.3369 11.7324V14.1644H73.1155V11.7324H76.3369ZM73.3289 16.3831H76.1022V26.9858H73.3289V16.3831ZM84.1572 25.3644C83.0052 25.3644 81.9883 25.1938 81.1065 24.8524C80.239 24.4969 79.5634 23.9778 79.0799 23.2951C78.5963 22.6124 78.3545 21.7875 78.3545 20.8204C78.3545 19.8675 78.5892 19.0426 79.0585 18.3458C79.5279 17.6489 80.1963 17.1084 81.0639 16.7244C81.9457 16.3404 82.9768 16.1484 84.1572 16.1484C84.4843 16.1484 84.7972 16.1698 85.0959 16.2124C85.4088 16.2551 85.7145 16.312 86.0132 16.3831L91.3676 16.4044V18.4951C90.6423 18.5093 89.9027 18.424 89.1489 18.2391C88.4097 18.04 87.7554 17.8266 87.1865 17.5991L87.1225 17.4498C87.6061 17.6773 88.0612 17.9618 88.4879 18.3031C88.9143 18.6302 89.2556 19.0142 89.5116 19.4551C89.7818 19.8818 89.9169 20.3795 89.9169 20.9484C89.9169 21.8729 89.6823 22.6693 89.2129 23.3378C88.7439 23.992 88.0754 24.4969 87.2079 24.8524C86.3545 25.1938 85.3377 25.3644 84.1572 25.3644ZM87.7199 31.3591V30.8471C87.7199 30.1929 87.5065 29.7378 87.0799 29.4818C86.6674 29.2258 86.0985 29.0978 85.3732 29.0978H82.0665C81.4265 29.0978 80.8861 29.048 80.4452 28.9484C80.0185 28.8489 79.6772 28.7066 79.4212 28.5218C79.1652 28.3369 78.9803 28.1164 78.8665 27.8604C78.7528 27.6186 78.6959 27.3555 78.6959 27.0711C78.6959 26.5022 78.8808 26.0755 79.2505 25.7911C79.6203 25.4924 80.1181 25.2933 80.7439 25.1938C81.3697 25.0942 82.0594 25.0729 82.8132 25.1298L84.1572 25.3644C83.2612 25.3929 82.5928 25.4711 82.1519 25.5991C81.7252 25.7129 81.5119 25.9475 81.5119 26.3031C81.5119 26.5164 81.5972 26.6871 81.7679 26.8151C81.9385 26.9289 82.1803 26.9858 82.4932 26.9858H85.9705C86.9234 26.9858 87.7341 27.0853 88.4025 27.2844C89.0849 27.4978 89.6041 27.8462 89.9596 28.3298C90.3152 28.8275 90.4929 29.5031 90.4929 30.3564V31.3591H87.7199ZM84.1572 23.3591C84.7688 23.3591 85.3021 23.2595 85.7572 23.0604C86.2265 22.8613 86.5892 22.5769 86.8452 22.2071C87.1012 21.8231 87.2292 21.368 87.2292 20.8418C87.2292 20.3013 87.1012 19.8391 86.8452 19.4551C86.5892 19.0711 86.2337 18.7795 85.7785 18.5804C85.3234 18.3671 84.783 18.2604 84.1572 18.2604C83.5457 18.2604 83.0052 18.3671 82.5359 18.5804C82.0665 18.7795 81.7039 19.0711 81.4479 19.4551C81.1919 19.8391 81.0639 20.3013 81.0639 20.8418C81.0639 21.368 81.1919 21.8231 81.4479 22.2071C81.7039 22.5769 82.0594 22.8613 82.5145 23.0604C82.9839 23.2595 83.5314 23.3591 84.1572 23.3591ZM102.865 26.9858V21.1618C102.865 20.5786 102.765 20.0951 102.566 19.7111C102.367 19.3271 102.047 19.0355 101.606 18.8364C101.179 18.6373 100.603 18.5378 99.8778 18.5378C99.1809 18.5378 98.5481 18.6729 97.9792 18.9431C97.4103 19.1991 96.9481 19.5404 96.5925 19.9671C96.2369 20.3795 96.0378 20.8204 95.9952 21.2898L95.9738 20.1164C96.0449 19.6471 96.2085 19.1778 96.4645 18.7084C96.7205 18.2391 97.0618 17.8124 97.4885 17.4284C97.9152 17.0444 98.4272 16.7386 99.0245 16.5111C99.6361 16.2693 100.319 16.1484 101.073 16.1484C101.727 16.1484 102.331 16.2338 102.886 16.4044C103.44 16.5609 103.924 16.8098 104.337 17.1511C104.749 17.4924 105.069 17.9191 105.297 18.4311C105.524 18.9289 105.638 19.5191 105.638 20.2018V26.9858H102.865ZM93.3712 26.9858V12.1164H96.1445V26.9858H93.3712ZM107.411 16.3831H115.646V18.5378H107.411V16.3831ZM110.142 13.4818H112.915V26.9858H110.142V13.4818ZM117.622 12.1164H120.395V26.9858H117.622V12.1164ZM122.24 16.3831H125.184L129.77 26.5591L127.381 26.9858L122.24 16.3831ZM135.21 16.3831L127.872 31.2524H124.992L128.128 25.4071L132.245 16.3831H135.21Z" fill="white" fill-opacity="0.6"/>
</svg>
