<svg width="161" height="40" viewBox="0 0 161 40" fill="none" xmlns="http://www.w3.org/2000/svg">
<path fill-rule="evenodd" clip-rule="evenodd" d="M8.53409 12.1836C8.99851 10.1806 11.0058 8.93173 13.0175 9.39422L26.4516 12.4823C28.4633 12.9446 29.7176 14.9433 29.2531 16.9463L26.1516 30.3223C25.6872 32.3253 23.6799 33.5742 21.6682 33.1117L8.23414 30.0236C6.22244 29.5612 4.96811 27.5626 5.43259 25.5596L8.53409 12.1836ZM12.9646 9.42667C13.429 7.42369 15.4364 6.17478 17.448 6.63725L30.8821 9.72533C32.8939 10.1877 34.1482 12.1864 33.6837 14.1894L30.5822 27.5653C30.1178 29.5684 28.1105 30.8173 26.0988 30.3548L12.6647 27.2668C10.653 26.8044 9.39869 24.8057 9.86314 22.8027L12.9646 9.42667Z" fill="white" fill-opacity="0.6"/>
<path d="M47.5703 27.8745V12.3594H57.8431V15.0639H50.8507V18.7609H57.1612V21.4654H50.8507V27.8745H47.5703ZM59.8014 27.8745V16.2381H62.9302V18.2684H63.0514C63.2636 17.5462 63.6196 17.0008 64.1196 16.6321C64.6196 16.2584 65.1954 16.0715 65.8468 16.0715C66.0084 16.0715 66.1828 16.0816 66.3696 16.1018C66.5564 16.122 66.7206 16.1498 66.862 16.1852V19.0488C66.7105 19.0033 66.5009 18.9629 66.2332 18.9276C65.9655 18.8922 65.7206 18.8745 65.4984 18.8745C65.0236 18.8745 64.5994 18.978 64.2257 19.1852C63.857 19.3871 63.564 19.67 63.3468 20.0336C63.1348 20.3972 63.0287 20.8164 63.0287 21.2912V27.8745H59.8014ZM71.5155 28.0942C70.773 28.0942 70.1114 27.9654 69.5306 27.7078C68.9498 27.4452 68.4901 27.0588 68.1518 26.5488C67.8185 26.0336 67.6518 25.3922 67.6518 24.6245C67.6518 23.978 67.7705 23.4351 68.0078 22.9957C68.2452 22.5564 68.5684 22.2028 68.9775 21.9351C69.3867 21.6675 69.8513 21.4654 70.3715 21.3291C70.8967 21.1927 71.4473 21.0967 72.023 21.0412C72.6997 20.9705 73.2452 20.9048 73.6594 20.8443C74.0735 20.7786 74.374 20.6826 74.5609 20.5564C74.7477 20.43 74.8412 20.2432 74.8412 19.9957V19.9503C74.8412 19.4705 74.6897 19.0993 74.3867 18.8366C74.0886 18.574 73.6644 18.4427 73.114 18.4427C72.5331 18.4427 72.071 18.5715 71.7276 18.8291C71.3841 19.0816 71.1568 19.3998 71.0457 19.7836L68.0609 19.5412C68.2124 18.8341 68.5104 18.223 68.9548 17.7078C69.3993 17.1876 69.9725 16.7887 70.6745 16.5109C71.3816 16.2281 72.1997 16.0867 73.1291 16.0867C73.7756 16.0867 74.3942 16.1624 74.9852 16.314C75.5811 16.4654 76.1089 16.7003 76.5684 17.0185C77.0331 17.3366 77.3993 17.7458 77.6669 18.2458C77.9346 18.7407 78.0684 19.3341 78.0684 20.026V27.8745H75.0078V26.2609H74.917C74.73 26.6245 74.4801 26.9452 74.1669 27.223C73.8538 27.4957 73.4775 27.7104 73.0381 27.8669C72.5988 28.0185 72.0912 28.0942 71.5155 28.0942ZM72.4396 25.8669C72.9144 25.8669 73.3336 25.7735 73.6972 25.5867C74.0609 25.3948 74.3462 25.1372 74.5533 24.814C74.7604 24.4907 74.8639 24.1245 74.8639 23.7155V22.4806C74.7629 22.5462 74.624 22.6068 74.4473 22.6624C74.2756 22.7129 74.0811 22.7609 73.8639 22.8063C73.6468 22.8468 73.4296 22.8846 73.2124 22.92C72.9952 22.9503 72.7982 22.978 72.6215 23.0033C72.2427 23.0588 71.9119 23.1473 71.6291 23.2684C71.3462 23.3897 71.1266 23.5538 70.97 23.7609C70.8134 23.9629 70.7351 24.2155 70.7351 24.5185C70.7351 24.9579 70.8942 25.2937 71.2124 25.526C71.5357 25.7533 71.9447 25.8669 72.4396 25.8669ZM80.5723 27.8745V16.2381H83.648V18.2912H83.7844C84.0268 17.6093 84.4308 17.0715 84.9964 16.6776C85.5621 16.2836 86.2389 16.0867 87.0268 16.0867C87.8248 16.0867 88.5041 16.2861 89.0645 16.6852C89.6254 17.0791 89.9988 17.6144 90.1863 18.2912H90.3072C90.5445 17.6245 90.9739 17.0917 91.5952 16.6927C92.221 16.2887 92.9614 16.0867 93.8148 16.0867C94.9001 16.0867 95.7819 16.4326 96.4583 17.1245C97.1401 17.8114 97.4814 18.7861 97.4814 20.0488V27.8745H94.2619V20.6852C94.2619 20.0387 94.0903 19.5538 93.7463 19.2306C93.4032 18.9074 92.9739 18.7458 92.4583 18.7458C91.8725 18.7458 91.4156 18.9326 91.0876 19.3063C90.7588 19.675 90.5952 20.1624 90.5952 20.7684V27.8745H87.4662V20.617C87.4662 20.0462 87.302 19.5917 86.9738 19.2533C86.6505 18.9149 86.2237 18.7458 85.6934 18.7458C85.3348 18.7458 85.0116 18.8366 84.7237 19.0185C84.4409 19.1952 84.2162 19.4452 84.0495 19.7684C83.8828 20.0867 83.7996 20.4604 83.7996 20.8897V27.8745H80.5723ZM105.334 28.1018C104.137 28.1018 103.106 27.8594 102.242 27.3745C101.385 26.8846 100.722 26.1927 100.257 25.2988C99.7934 24.3998 99.5605 23.3366 99.5605 22.1093C99.5605 20.9124 99.7934 19.8619 100.257 18.9579C100.722 18.0538 101.377 17.3492 102.22 16.8443C103.068 16.3392 104.064 16.0867 105.205 16.0867C105.972 16.0867 106.687 16.2104 107.349 16.4579C108.016 16.7003 108.596 17.0665 109.091 17.5564C109.591 18.0462 109.98 18.6624 110.257 19.4048C110.536 20.1422 110.674 21.0059 110.674 21.9957V22.8821H100.849V20.8821H107.637C107.637 20.4174 107.536 20.0059 107.334 19.6473C107.131 19.2887 106.851 19.0084 106.493 18.8063C106.139 18.5993 105.728 18.4957 105.257 18.4957C104.768 18.4957 104.334 18.6093 103.955 18.8366C103.581 19.0588 103.289 19.3594 103.076 19.7381C102.864 20.1119 102.755 20.5285 102.75 20.9882V22.8897C102.75 23.4654 102.857 23.9629 103.068 24.3821C103.286 24.8013 103.591 25.1245 103.985 25.3518C104.379 25.5791 104.846 25.6927 105.386 25.6927C105.745 25.6927 106.073 25.6422 106.371 25.5412C106.67 25.4402 106.924 25.2887 107.137 25.0867C107.349 24.8846 107.511 24.6372 107.622 24.3443L110.607 24.5412C110.455 25.2584 110.145 25.8846 109.674 26.42C109.21 26.9503 108.609 27.3644 107.872 27.6624C107.139 27.9554 106.293 28.1018 105.334 28.1018ZM112.841 27.8745V12.3594H123.114V15.0639H116.121V18.7609H122.433V21.4654H116.121V27.8745H112.841ZM128.487 12.3594V27.8745H125.26V12.3594H128.487ZM136.329 28.1018C135.153 28.1018 134.136 27.8518 133.277 27.3518C132.424 26.8468 131.764 26.1447 131.299 25.2458C130.835 24.3417 130.602 23.2937 130.602 22.1018C130.602 20.8998 130.835 19.8492 131.299 18.9503C131.764 18.0462 132.424 17.3443 133.277 16.8443C134.136 16.3392 135.153 16.0867 136.329 16.0867C137.506 16.0867 138.521 16.3392 139.376 16.8443C140.233 17.3443 140.896 18.0462 141.361 18.9503C141.825 19.8492 142.057 20.8998 142.057 22.1018C142.057 23.2937 141.825 24.3417 141.361 25.2458C140.896 26.1447 140.233 26.8468 139.376 27.3518C138.521 27.8518 137.506 28.1018 136.329 28.1018ZM136.345 25.6018C136.881 25.6018 137.328 25.4503 137.686 25.1473C138.044 24.8392 138.314 24.42 138.497 23.8897C138.683 23.3594 138.777 22.7558 138.777 22.0791C138.777 21.4023 138.683 20.7988 138.497 20.2684C138.314 19.7381 138.044 19.3189 137.686 19.0109C137.328 18.7028 136.881 18.5488 136.345 18.5488C135.805 18.5488 135.35 18.7028 134.981 19.0109C134.617 19.3189 134.343 19.7381 134.155 20.2684C133.974 20.7988 133.883 21.4023 133.883 22.0791C133.883 22.7558 133.974 23.3594 134.155 23.8897C134.343 24.42 134.617 24.8392 134.981 25.1473C135.35 25.4503 135.805 25.6018 136.345 25.6018ZM146.16 27.8745L142.993 16.2381H146.257L148.061 24.0564H148.167L150.046 16.2381H153.25L155.16 24.0109H155.257L157.031 16.2381H160.289L157.129 27.8745H153.713L151.713 20.5564H151.569L149.569 27.8745H146.16Z" fill="white" fill-opacity="0.6"/>
</svg>
