<svg width="42" height="42" viewBox="0 0 42 42" fill="none" xmlns="http://www.w3.org/2000/svg">
<path d="M20.6523 11.3566L23.2521 8.75687C26.1793 5.82961 30.0116 4.6154 34.0674 4.41699C35.645 4.33981 36.4338 4.30123 37.0662 4.93375C37.6988 5.56625 37.6602 6.35501 37.583 7.93256C37.3845 11.9884 36.1704 15.8207 33.2432 18.7479L30.6434 21.3477C28.5024 23.4887 27.8938 24.0975 28.3432 26.4198C28.7868 28.1937 29.2161 29.9115 27.9261 31.2015C26.3615 32.7661 24.9342 32.7661 23.3695 31.2015L10.7985 18.6305C9.23386 17.0658 9.2338 15.6385 10.7985 14.0738C12.0884 12.7839 13.8063 13.2133 15.5802 13.6568C17.9025 14.1063 18.5113 13.4976 20.6523 11.3566Z" stroke="#FF3900" stroke-width="2" stroke-linejoin="round"/>
<path d="M29.7344 12.25H29.7501" stroke="#FF3900" stroke-width="2" stroke-linecap="round" stroke-linejoin="round"/>
<path d="M4.375 37.625L13.125 28.875" stroke="#FF3900" stroke-width="2" stroke-linecap="round"/>
<path d="M14.875 37.625L18.375 34.125" stroke="#FF3900" stroke-width="2" stroke-linecap="round"/>
<path d="M4.375 27.125L7.875 23.625" stroke="#FF3900" stroke-width="2" stroke-linecap="round"/>
</svg>
