<svg width="161" height="40" viewBox="0 0 161 40" fill="none" xmlns="http://www.w3.org/2000/svg">
<g clip-path="url(#clip0_2_33)">
<path opacity="0.5" fill-rule="evenodd" clip-rule="evenodd" d="M21.3239 7.86054C21.5437 6.88531 20.9311 5.91665 19.9559 5.69698C18.9806 5.47731 18.012 6.08981 17.7924 7.06504C16.987 10.6408 15.9439 12.9212 14.3713 14.5263C12.803 16.1271 10.504 17.2628 6.74861 18.1088C5.77339 18.3284 5.1609 19.2971 5.38058 20.2723C5.60026 21.2475 6.56892 21.8601 7.54415 21.6403C11.6276 20.7205 14.6977 19.3659 16.9571 17.0598C19.2121 14.7583 20.4556 11.7157 21.3239 7.86054ZM32.3674 21.6403C33.3426 21.4206 33.9551 20.4519 33.7354 19.4767C33.5158 18.5015 32.547 17.889 31.5718 18.1087C27.7166 18.9771 24.6742 20.2205 22.3726 22.4755C20.0666 24.7349 18.7119 27.805 17.792 31.8884C17.5724 32.8637 18.1848 33.8323 19.16 34.0521C20.1353 34.2717 21.1039 33.6593 21.3237 32.684C22.1696 28.9285 23.3054 26.6298 24.9061 25.0614C26.5112 23.4887 28.7917 22.4458 32.3674 21.6403Z" fill="white" fill-opacity="0.6"/>
<path fill-rule="evenodd" clip-rule="evenodd" d="M21.3237 7.06504C21.1039 6.08981 20.1353 5.47731 19.1601 5.69698C18.1848 5.91665 17.5724 6.88531 17.792 7.86054C18.6604 11.7157 19.9038 14.7583 22.1589 17.0598C24.4182 19.3659 27.4884 20.7205 31.5718 21.6403C32.547 21.8601 33.5158 21.2475 33.7354 20.2723C33.9551 19.2971 33.3426 18.3284 32.3674 18.1088C28.6119 17.2628 26.3131 16.1271 24.7447 14.5263C23.172 12.9212 22.1291 10.6408 21.3237 7.06504ZM7.54415 18.1087C6.56892 17.889 5.60026 18.5015 5.38058 19.4767C5.1609 20.4519 5.77339 21.4206 6.74861 21.6403C10.504 22.4862 12.803 23.6219 14.3713 25.2227C15.9439 26.8278 16.987 29.1083 17.7924 32.684C18.012 33.6592 18.9806 34.2717 19.9559 34.0521C20.9311 33.8323 21.5437 32.8637 21.3239 31.8885C20.4556 28.0333 19.2121 24.9907 16.9571 22.6891C14.6977 20.3832 11.6276 19.0285 7.54415 18.1087Z" fill="white" fill-opacity="0.6"/>
<path d="M47.6562 27.874V11.5902H50.5677V27.874H47.6562ZM53.1519 27.874V15.9122H55.9618V17.7855H56.0182C56.6389 16.499 57.8577 15.6639 59.6745 15.6639C62.3038 15.6639 63.8047 17.3567 63.8047 20.1327V27.874H60.9948V20.6969C60.9948 18.9929 60.2049 18.0337 58.6025 18.0337C56.9887 18.0337 55.9618 19.2073 55.9618 20.9339V27.874H53.1519ZM70.5078 28.111C68.0026 28.111 66.8177 27.0953 66.8177 24.6352V18.0789H65.125V15.9122H66.8177V12.8766H69.6728V15.9122H71.8958V18.0789H69.6728V24.3983C69.6728 25.5719 70.1918 25.9443 71.2187 25.9443C71.4896 25.9443 71.704 25.9104 71.8958 25.8991V28.0094C71.5686 28.0545 71.0721 28.111 70.5078 28.111ZM78.8585 28.111C75.2699 28.111 73.1033 25.7299 73.1033 21.927V21.9157C73.1033 18.1465 75.3038 15.6639 78.7231 15.6639C82.1424 15.6639 84.2639 18.0676 84.2639 21.6787V22.5815H75.8906C75.9358 24.6804 77.0868 25.9217 78.9149 25.9217C80.3142 25.9217 81.2283 25.1769 81.4991 24.3758L81.5217 24.2967H84.151L84.1172 24.4208C83.7448 26.2603 81.9843 28.111 78.8585 28.111ZM78.757 17.8645C77.2674 17.8645 76.1502 18.8687 75.9245 20.7082H81.533C81.3298 18.8124 80.2466 17.8645 78.757 17.8645ZM86.1597 27.874V11.5902H88.9698V27.874H86.1597ZM91.4409 27.874V11.5902H94.2506V27.874H91.4409ZM98.1324 14.1969C97.2524 14.1969 96.5644 13.4973 96.5644 12.6622C96.5644 11.8046 97.2524 11.1162 98.1324 11.1162C99.0133 11.1162 99.6898 11.8046 99.6898 12.6622C99.6898 13.4973 99.0133 14.1969 98.1324 14.1969ZM96.7226 27.874V15.9122H99.5324V27.874H96.7226ZM107.928 28.1561C104.193 28.1561 101.732 26.3957 101.54 23.4729L101.53 23.3037H104.316L104.34 23.4391C104.554 24.8384 105.987 25.7073 108.029 25.7073C110.084 25.7073 111.37 24.7933 111.37 23.394V23.3827C111.37 22.1639 110.524 21.5094 108.425 21.0693L106.676 20.7082C103.47 20.0424 101.891 18.5528 101.891 16.1266V16.1153C101.902 13.249 104.419 11.308 107.928 11.308C111.483 11.308 113.807 13.1813 113.977 15.9686L113.988 16.1605H111.201L111.178 16.025C110.986 14.6031 109.733 13.7568 107.906 13.7568C105.998 13.7681 104.813 14.6596 104.813 15.9573V15.9686C104.813 17.1197 105.705 17.7967 107.668 18.203L109.428 18.5641C112.814 19.2638 114.292 20.6405 114.292 23.1795V23.1908C114.292 26.2264 111.9 28.1561 107.928 28.1561ZM116.188 31.8237V15.9122H118.998V17.9773H119.055C119.743 16.5441 121.052 15.6639 122.767 15.6639C125.803 15.6639 127.722 18.0337 127.722 21.8931V21.9044C127.722 25.7412 125.803 28.111 122.801 28.111C121.097 28.111 119.732 27.2534 119.055 25.854H118.998V31.8237H116.188ZM121.932 25.7412C123.726 25.7412 124.855 24.2629 124.855 21.9044V21.8931C124.855 19.5007 123.726 18.0337 121.932 18.0337C120.195 18.0337 118.976 19.5459 118.976 21.8931V21.9044C118.976 24.2403 120.195 25.7412 121.932 25.7412ZM133.059 28.0771C130.667 28.0771 129.053 26.5988 129.053 24.466V24.4434C129.053 22.3219 130.7 21.0467 133.601 20.8662L136.726 20.6743V19.8505C136.726 18.6431 135.937 17.9095 134.515 17.9095C133.183 17.9095 132.371 18.5303 132.19 19.4104L132.168 19.512H129.561L129.572 19.3766C129.741 17.2551 131.58 15.6639 134.616 15.6639C137.607 15.6639 139.537 17.2438 139.537 19.6474V27.874H136.726V26.0346H136.659C135.971 27.2871 134.639 28.0771 133.059 28.0771ZM131.852 24.3532C131.852 25.335 132.664 25.933 133.894 25.933C135.508 25.933 136.726 24.861 136.726 23.4391V22.5363L133.996 22.7055C132.608 22.7959 131.852 23.394 131.852 24.3419V24.3532ZM141.804 27.874V15.9122H144.614V17.9773H144.671C145.044 16.5328 146.036 15.6639 147.413 15.6639C147.763 15.6639 148.091 15.7203 148.305 15.7767V18.3159C148.068 18.2255 147.639 18.1578 147.165 18.1578C145.574 18.1578 144.614 19.1622 144.614 20.9339V27.874H141.804ZM149.873 27.874V11.5902H152.684V20.8775H152.74L157.208 15.9122H160.459L155.719 21.058L160.65 27.874H157.412L153.631 22.7281L152.684 23.7212V27.874H149.873Z" fill="white" fill-opacity="0.6"/>
</g>
<defs>
<clipPath id="clip0_2_33">
<rect width="160.889" height="40" fill="white"/>
</clipPath>
</defs>
</svg>
