<svg width="136" height="40" viewBox="0 0 136 40" fill="none" xmlns="http://www.w3.org/2000/svg">
<path fill-rule="evenodd" clip-rule="evenodd" d="M14.23 15.1334C19.1365 15.1305 23.113 11.1521 23.113 6.24491V5.65234H10.0765C7.45836 5.65234 5.33594 7.77476 5.33594 10.3929C5.33594 13.01 7.4568 15.1319 10.0736 15.1334C7.45681 15.135 5.33594 17.2568 5.33594 19.874C5.33594 22.4922 7.45836 24.6146 10.0765 24.6146H14.2245C9.31549 24.6146 5.33594 28.594 5.33594 33.5031V34.0956H18.3725C20.9906 34.0956 23.113 31.9732 23.113 29.3551C23.113 26.737 20.9906 24.6146 18.3725 24.6146C20.9906 24.6146 23.113 22.4922 23.113 19.874C23.113 17.2559 20.9906 15.1334 18.3725 15.1334H14.23ZM33.7649 5.65239C29.191 5.65239 25.4831 9.36026 25.4831 13.9342V15.7246V15.7422L25.5108 34.0963C30.0846 34.0893 33.7869 30.3758 33.7799 25.8019L33.7772 24.0115C33.777 23.8629 33.7728 23.7154 33.7649 23.5688V5.65239Z" fill="white" fill-opacity="0.6"/>
<path d="M54.2995 28.155C53.1814 28.155 52.1745 27.9779 51.2787 27.6237C50.3898 27.2696 49.6328 26.7557 49.0078 26.0821C48.3828 25.4015 47.9036 24.5786 47.5703 23.6133C47.237 22.6411 47.0703 21.5439 47.0703 20.3217V20.3113C47.0703 18.7001 47.362 17.3182 47.9453 16.1654C48.5286 15.0057 49.355 14.1168 50.4245 13.4987C51.5009 12.8737 52.7717 12.5612 54.237 12.5612C55.4384 12.5612 56.5009 12.7765 57.4245 13.2071C58.355 13.6307 59.112 14.214 59.6953 14.957C60.2787 15.7001 60.6502 16.5508 60.8099 17.5091L60.8412 17.655H57.6849L57.6537 17.5404C57.4106 16.8113 56.994 16.2453 56.4036 15.8425C55.8204 15.4328 55.1016 15.2279 54.2474 15.2279C53.4211 15.2279 52.7127 15.4293 52.1224 15.8321C51.5322 16.2279 51.0772 16.8043 50.7579 17.5612C50.4384 18.3113 50.2787 19.2175 50.2787 20.28V20.2904C50.2787 21.1029 50.3724 21.8321 50.5599 22.4779C50.7544 23.1168 51.0286 23.6619 51.3828 24.1133C51.737 24.5577 52.1641 24.898 52.6641 25.1342C53.171 25.3703 53.737 25.4883 54.362 25.4883C55.0426 25.4883 55.6433 25.3633 56.1641 25.1133C56.6918 24.8564 57.1051 24.4953 57.4036 24.03C57.7092 23.5647 57.8759 23.0231 57.9036 22.405L57.914 22.1758H54.5078V19.8425H60.9766V21.6029C60.9766 22.6168 60.8238 23.53 60.5182 24.3425C60.2196 25.1481 59.7821 25.8355 59.2058 26.405C58.6293 26.9745 57.928 27.4085 57.1016 27.7071C56.2752 28.0057 55.3412 28.155 54.2995 28.155ZM62.9557 27.8737V16.655H65.9974V18.5717H66.0807C66.2474 17.898 66.5564 17.3737 67.0078 16.9987C67.4592 16.6237 68.0182 16.4362 68.6849 16.4362C68.8655 16.4362 69.0356 16.4466 69.1953 16.4675C69.355 16.4883 69.494 16.5196 69.612 16.5612V19.2279C69.4661 19.1723 69.2925 19.1307 69.0912 19.1029C68.8898 19.0752 68.678 19.0612 68.4557 19.0612C67.9419 19.0612 67.5009 19.1585 67.1328 19.3529C66.7648 19.5473 66.4836 19.8355 66.2891 20.2175C66.0947 20.5925 65.9974 21.0508 65.9974 21.5925V27.8737H62.9557ZM74.0391 28.0508C73.296 28.0508 72.6433 27.9085 72.0807 27.6237C71.5182 27.3321 71.0772 26.9328 70.7579 26.4258C70.4453 25.912 70.2891 25.3251 70.2891 24.6654V24.6446C70.2891 23.9641 70.4592 23.3841 70.7995 22.905C71.1397 22.4189 71.6328 22.0369 72.2787 21.7592C72.9315 21.4745 73.7231 21.3043 74.6537 21.2488L78.987 20.9779V22.8633L75.112 23.1133C74.5148 23.1481 74.0599 23.2869 73.7474 23.53C73.4419 23.7661 73.2891 24.0856 73.2891 24.4883V24.4987C73.2891 24.9154 73.4453 25.2418 73.7579 25.4779C74.0772 25.714 74.5009 25.8321 75.0286 25.8321C75.487 25.8321 75.8932 25.7418 76.2474 25.5612C76.6085 25.3807 76.8932 25.1377 77.1016 24.8321C77.31 24.5196 77.414 24.1689 77.414 23.78V20.3425C77.414 19.8495 77.2543 19.4606 76.9349 19.1758C76.6224 18.8911 76.1641 18.7488 75.5599 18.7488C74.9974 18.7488 74.546 18.8633 74.2058 19.0925C73.8724 19.3147 73.6641 19.6029 73.5807 19.957L73.5599 20.0508H70.7683L70.7787 19.9258C70.8412 19.2384 71.0738 18.6342 71.4765 18.1133C71.8863 17.5856 72.4453 17.1723 73.1537 16.8737C73.869 16.5681 74.7162 16.4154 75.6953 16.4154C76.6676 16.4154 77.5078 16.5717 78.2162 16.8841C78.9245 17.1967 79.4731 17.6342 79.862 18.1967C80.2508 18.7592 80.4453 19.4224 80.4453 20.1863V27.8737H77.414V26.2384H77.3308C77.1224 26.6133 76.8516 26.9362 76.5182 27.2071C76.1918 27.4779 75.8204 27.6863 75.4036 27.8321C74.987 27.9779 74.5322 28.0508 74.0391 28.0508ZM82.5807 31.5508V16.655H85.6224V18.5717H85.7162C85.9175 18.1273 86.1814 17.7453 86.5078 17.4258C86.8412 17.1064 87.2266 16.8633 87.6641 16.6967C88.1085 16.5231 88.5981 16.4362 89.1332 16.4362C90.0772 16.4362 90.8897 16.6689 91.5706 17.1342C92.2577 17.5925 92.7857 18.2592 93.1537 19.1342C93.5217 20.0022 93.7057 21.0439 93.7057 22.2592V22.2696C93.7057 23.4849 93.5217 24.5265 93.1537 25.3945C92.7857 26.2626 92.2612 26.9293 91.5804 27.3945C90.9075 27.8599 90.1012 28.0925 89.1644 28.0925C88.6363 28.0925 88.1468 28.0091 87.6953 27.8425C87.2439 27.6689 86.8516 27.4258 86.5182 27.1133C86.1849 26.8009 85.914 26.4258 85.7058 25.9883H85.6224V31.5508H82.5807ZM88.1224 25.5717C88.6293 25.5717 89.0701 25.4397 89.4452 25.1758C89.8204 24.905 90.1084 24.5231 90.3101 24.03C90.511 23.5369 90.6124 22.9501 90.6124 22.2696V22.2592C90.6124 21.5717 90.5075 20.9814 90.2995 20.4883C90.0977 19.9953 89.8097 19.6168 89.4346 19.3529C89.0666 19.089 88.6293 18.957 88.1224 18.957C87.6224 18.957 87.1814 19.0925 86.7995 19.3633C86.4245 19.6273 86.1293 20.0057 85.914 20.4987C85.7058 20.9918 85.6016 21.5786 85.6016 22.2592V22.2696C85.6016 22.9501 85.7092 23.5369 85.9245 24.03C86.1397 24.5231 86.4349 24.905 86.8099 25.1758C87.1849 25.4397 87.6224 25.5717 88.1224 25.5717ZM95.5395 27.8737V12.6967H98.5804V18.5508H98.6639C98.9484 17.8703 99.3795 17.3459 99.9555 16.9779C100.532 16.6029 101.237 16.4154 102.07 16.4154C102.883 16.4154 103.58 16.5925 104.164 16.9466C104.747 17.3009 105.195 17.8043 105.507 18.457C105.82 19.1098 105.977 19.8876 105.977 20.7904V27.8737H102.935V21.4258C102.935 20.6411 102.751 20.03 102.383 19.5925C102.022 19.155 101.494 18.9362 100.8 18.9362C100.348 18.9362 99.9555 19.0439 99.6221 19.2592C99.2888 19.4675 99.0319 19.7592 98.8515 20.1342C98.671 20.5091 98.5804 20.9432 98.5804 21.4362V27.8737H95.5395ZM108.154 27.8737V16.655H111.195V27.8737H108.154ZM109.675 15.1654C109.216 15.1654 108.827 15.0091 108.507 14.6967C108.195 14.3772 108.039 13.9987 108.039 13.5612C108.039 13.1168 108.195 12.7384 108.507 12.4258C108.827 12.1133 109.216 11.957 109.675 11.957C110.139 11.957 110.529 12.1133 110.841 12.4258C111.161 12.7384 111.32 13.1168 111.32 13.5612C111.32 13.9987 111.161 14.3772 110.841 14.6967C110.529 15.0091 110.139 15.1654 109.675 15.1654ZM113.195 27.8737V26.1446L118.851 19.03V18.9466H113.279V16.655H122.352V18.5821L117.028 25.4987V25.5821H122.476V27.8737H113.195ZM129.341 28.1029C128.209 28.1029 127.227 27.8703 126.394 27.405C125.56 26.9397 124.917 26.273 124.467 25.405C124.015 24.53 123.789 23.4849 123.789 22.2696V22.2488C123.789 21.0404 124.019 20.0022 124.476 19.1342C124.935 18.2592 125.578 17.589 126.403 17.1237C127.237 16.6515 128.216 16.4154 129.341 16.4154C130.467 16.4154 131.442 16.6515 132.268 17.1237C133.101 17.589 133.747 18.2557 134.206 19.1237C134.664 19.9918 134.893 21.0335 134.893 22.2488V22.2696C134.893 23.4918 134.667 24.5369 134.216 25.405C133.764 26.273 133.123 26.9397 132.289 27.405C131.463 27.8703 130.48 28.1029 129.341 28.1029ZM129.352 25.7175C129.859 25.7175 130.292 25.5821 130.653 25.3113C131.022 25.0404 131.303 24.6481 131.498 24.1342C131.699 23.6202 131.8 22.9987 131.8 22.2696V22.2488C131.8 21.5196 131.699 20.898 131.498 20.3841C131.296 19.8703 131.011 19.4779 130.643 19.2071C130.275 18.9362 129.841 18.8009 129.341 18.8009C128.848 18.8009 128.414 18.9397 128.039 19.2175C127.671 19.4883 127.387 19.8807 127.185 20.3945C126.984 20.9015 126.883 21.5196 126.883 22.2488V22.2696C126.883 22.9987 126.984 23.6202 127.185 24.1342C127.387 24.6481 127.671 25.0404 128.039 25.3113C128.407 25.5821 128.844 25.7175 129.352 25.7175Z" fill="white" fill-opacity="0.6"/>
</svg>
