<svg width="144" height="40" viewBox="0 0 144 40" fill="none" xmlns="http://www.w3.org/2000/svg">
<g clip-path="url(#clip0_2_41)">
<path fill-rule="evenodd" clip-rule="evenodd" d="M28.4017 12.8442C32.3246 17.5194 31.785 24.3435 27.3114 28.0973C25.4827 29.6317 23.274 30.4274 21.028 30.5178C20.2703 30.5482 19.6809 31.1871 19.7114 31.9447C19.7417 32.7024 20.3806 33.2919 21.1383 33.2614C23.9635 33.1479 26.7612 32.1434 29.0764 30.2008C34.7673 25.4256 35.3556 16.8597 30.5052 11.0793C25.6549 5.29885 17.117 4.39066 11.4261 9.16594C9.11087 11.1086 7.63589 13.6893 7.03352 16.452C6.87193 17.1928 7.34148 17.9243 8.08243 18.0858C8.82326 18.2474 9.55478 17.7778 9.71629 17.037C10.1952 14.8408 11.3624 12.8038 13.191 11.2694C17.6646 7.51559 24.4789 8.16916 28.4017 12.8442ZM22.5239 22.77C23.9761 21.5515 24.1655 19.3865 22.947 17.9343C21.7285 16.4822 19.5635 16.2928 18.1113 17.5113C16.6592 18.7298 16.4698 20.8948 17.6883 22.3469C18.9068 23.7991 21.0718 23.9885 22.5239 22.77ZM23.7228 24.2229C25.9597 22.4907 26.3752 19.1267 24.4855 16.6865C22.5959 14.2461 19.235 13.8064 16.9981 15.5385C15.9644 16.339 15.3251 17.473 15.115 18.7101C15.1182 18.775 15.117 18.8409 15.111 18.9074C15.0416 19.6625 14.3734 20.2185 13.6183 20.1491C12.3562 20.0334 11.084 20.3672 10.0404 21.1754C7.8035 22.9074 7.388 26.2714 9.27763 28.7118C11.1673 31.1521 14.5282 31.5918 16.7651 29.8597C17.7989 29.0593 18.4382 27.9251 18.6482 26.6881C18.6449 26.6232 18.6462 26.5573 18.6523 26.4908C18.7215 25.7357 19.3898 25.1797 20.1448 25.249C21.407 25.3649 22.6791 25.031 23.7228 24.2229ZM21.1628 27.9994C22.6589 27.8992 24.1367 27.3753 25.404 26.3939C28.9226 23.6693 29.4094 18.5602 26.6566 15.0052C23.9038 11.4503 18.8356 10.6427 15.3169 13.3674C13.9533 14.4234 13.0413 15.848 12.6005 17.3989C11.1043 17.499 9.62643 18.023 8.3592 19.0042C4.84059 21.7289 4.35376 26.8379 7.10656 30.393C9.85932 33.9479 14.9277 34.7554 18.4462 32.0308C19.8099 30.9749 20.722 29.5502 21.1628 27.9994Z" fill="white" fill-opacity="0.6"/>
<path d="M47.5469 27.874V12.8427H49.9635L57.2864 23.374H57.3489V12.8427H60.0156V27.874H57.6198L50.276 17.3011H50.2239V27.874H47.5469ZM67.2656 28.0927C63.9531 28.0927 61.9531 25.8948 61.9531 22.3844V22.374C61.9531 18.8948 63.9844 16.6031 67.1406 16.6031C70.2968 16.6031 72.2552 18.8219 72.2552 22.1552V22.9886H64.526C64.5677 24.9261 65.6302 26.0719 67.3177 26.0719C68.6094 26.0719 69.4531 25.3844 69.7031 24.6448L69.7239 24.5719H72.1511L72.1198 24.6865C71.776 26.3844 70.1511 28.0927 67.2656 28.0927ZM67.1719 18.6344C65.7968 18.6344 64.7656 19.5615 64.5573 21.2594H69.7343C69.5469 19.5094 68.5469 18.6344 67.1719 18.6344ZM77.6927 28.0927C75.2656 28.0927 73.8802 26.5302 73.8802 23.9678V16.8323H76.4739V23.4573C76.4739 25.0199 77.2031 25.9053 78.6823 25.9053C80.1719 25.9053 81.1198 24.8323 81.1198 23.2281V16.8323H83.7135V27.874H81.1198V26.1448H81.0677C80.4948 27.3219 79.3593 28.0927 77.6927 28.0927ZM85.8489 27.874V16.8323H88.4427V18.7386H88.4948C88.8385 17.4053 89.7555 16.6031 91.0257 16.6031C91.3493 16.6031 91.6506 16.6552 91.8488 16.7073V19.0511C91.6302 18.9678 91.2346 18.9053 90.7973 18.9053C89.3279 18.9053 88.4427 19.8323 88.4427 21.4678V27.874H85.8489ZM97.6506 28.0927C94.4008 28.0927 92.3075 25.9261 92.3075 22.3532V22.3323C92.3075 18.7906 94.4319 16.6031 97.6408 16.6031C100.859 16.6031 102.995 18.7698 102.995 22.3323V22.3532C102.995 25.9365 100.891 28.0927 97.6506 28.0927ZM97.6613 25.999C99.2968 25.999 100.349 24.6656 100.349 22.3532V22.3323C100.349 20.0303 99.2862 18.7073 97.6408 18.7073C96.0257 18.7073 94.9528 20.0407 94.9528 22.3323V22.3532C94.9528 24.676 96.0053 25.999 97.6613 25.999ZM104.922 27.874V12.8427H107.61V25.6135H114.432V27.874H104.922ZM117.474 15.249C116.661 15.249 116.026 14.6031 116.026 13.8323C116.026 13.0407 116.661 12.4053 117.474 12.4053C118.286 12.4053 118.911 13.0407 118.911 13.8323C118.911 14.6031 118.286 15.249 117.474 15.249ZM116.171 27.874V16.8323H118.765V27.874H116.171ZM120.974 27.874V16.8323H123.568V18.5615H123.62C124.193 17.374 125.317 16.6031 126.995 16.6031C129.422 16.6031 130.807 18.1656 130.807 20.7281V27.874H128.213V21.249C128.213 19.676 127.484 18.7906 126.005 18.7906C124.515 18.7906 123.568 19.874 123.568 21.4678V27.874H120.974ZM133.005 27.874V12.8427H135.599V21.4157H135.651L139.776 16.8323H142.776L138.401 21.5823L142.953 27.874H139.964L136.474 23.1239L135.599 24.0407V27.874H133.005Z" fill="white" fill-opacity="0.6"/>
</g>
<defs>
<clipPath id="clip0_2_41">
<rect width="143.111" height="40" fill="white"/>
</clipPath>
</defs>
</svg>
