<svg width="165" height="40" viewBox="0 0 165 40" fill="none" xmlns="http://www.w3.org/2000/svg">
<path fill-rule="evenodd" clip-rule="evenodd" d="M22.9832 6.99749L23.1252 5.93828L21.0068 5.6543L20.8647 6.71351L19.5732 16.3488L14.384 6.96525L13.8668 6.03003L11.9964 7.06439L12.5135 7.9996L18.6121 19.0276L6.5137 18.4013L5.44644 18.3461L5.33594 20.4806L6.4032 20.5359L16.4318 21.055L8.57796 25.7231L7.65929 26.2691L8.75134 28.1064L9.66998 27.5604L16.7235 23.368L11.405 30.199L10.7485 31.0423L12.435 32.3553L13.0915 31.512L19.939 22.7174L25.4966 31.5222L26.067 32.4259L27.8745 31.2851L27.304 30.3814L23.4518 24.2783L29.439 29.3618L30.2536 30.0535L31.637 28.4242L30.8224 27.7325L24.4066 22.2851L32.3325 23.6136L33.3865 23.7903L33.7398 21.6823L32.6858 21.5056L22.2284 19.7528L29.7257 10.3687L30.3928 9.53372L28.723 8.1996L28.0558 9.03452L21.6324 17.0746L22.9832 6.99749Z" fill="white" fill-opacity="0.6"/>
<path opacity="0.4" fill-rule="evenodd" clip-rule="evenodd" d="M8.33399 11.0605L9.21256 11.6689L20.0724 19.1889L20.0995 19.2077L20.7057 19.0777L32.2843 16.5961L33.3293 16.3721L33.7772 18.4621L32.7322 18.686L21.629 21.0658L21.5022 21.9029L19.8161 33.0379L19.6561 34.0945L17.5428 33.7745L17.7028 32.7179L19.3889 21.5829L19.4255 21.3407L18.8556 20.9461L7.99579 13.4261L7.11719 12.8177L8.33399 11.0605Z" fill="white" fill-opacity="0.6"/>
<path d="M47.7188 12.0517H54.9721C56.0672 12.0517 57.013 12.1512 57.8094 12.3503C58.6201 12.5352 59.2885 12.8054 59.8148 13.161C60.341 13.5023 60.7321 13.9148 60.9881 14.3983C61.2441 14.8819 61.3721 15.4152 61.3721 15.9983C61.3721 16.7521 61.1587 17.4063 60.7321 17.961C60.3054 18.5157 59.6654 18.9281 58.8121 19.1983C59.8788 19.4117 60.7108 19.8312 61.3081 20.457C61.9196 21.0686 62.2254 21.8579 62.2254 22.825C62.2254 24.105 61.6921 25.1219 60.6254 25.8757C59.573 26.6152 57.9019 26.985 55.6121 26.985H47.7188V12.0517ZM50.8121 20.1583V25.385H55.6121C56.6788 25.385 57.4965 25.1717 58.0654 24.745C58.6343 24.3183 58.9187 23.6783 58.9187 22.825C58.9187 21.9148 58.6343 21.2463 58.0654 20.8197C57.4965 20.3788 56.6788 20.1583 55.6121 20.1583H50.8121ZM54.9721 18.5583C57.0343 18.5583 58.0654 17.705 58.0654 15.9983C58.0654 15.2446 57.8023 14.6686 57.2761 14.2703C56.7641 13.8579 55.9961 13.6517 54.9721 13.6517H50.8121V18.5583H54.9721ZM67.7679 26.985H64.7812V12.0517H67.7679V26.985ZM73.2138 23.465C73.2138 24.8161 74.0316 25.4917 75.6671 25.4917H78.6538V21.4383H75.6671C74.0316 21.4383 73.2138 22.1139 73.2138 23.465ZM78.6538 19.945C78.6538 18.921 78.3836 18.1672 77.8431 17.6837C77.3169 17.2001 76.6271 16.9583 75.7738 16.9583C75.1338 16.9583 74.508 17.0579 73.8964 17.257C73.2849 17.4419 72.7373 17.6979 72.2538 18.025L71.5071 16.745C71.82 16.5317 72.1613 16.3468 72.5311 16.1903C72.9151 16.0339 73.3062 15.9059 73.7044 15.8063C74.1027 15.6926 74.4938 15.6072 74.8778 15.5503C75.276 15.4934 75.6458 15.465 75.9871 15.465C76.8973 15.465 77.7009 15.5717 78.3978 15.785C79.0947 15.9983 79.6849 16.3041 80.1684 16.7023C80.652 17.1006 81.0147 17.577 81.2564 18.1317C81.5124 18.6721 81.6404 19.2766 81.6404 19.945V26.985H75.6671C73.7329 26.985 72.3035 26.6934 71.3791 26.1103C70.4689 25.5272 70.0138 24.6454 70.0138 23.465C70.0138 22.2846 70.4689 21.4028 71.3791 20.8197C72.3035 20.2366 73.7329 19.945 75.6671 19.945H78.6538ZM94.8574 25.4917V26.985H83.7637V25.2783L91.1241 17.385H83.9771V15.8917H94.6441V17.5983L87.2837 25.4917H94.8574ZM102.848 25.9183C103.545 25.9183 104.192 25.7974 104.789 25.5557C105.401 25.3139 105.998 24.9726 106.581 24.5317L107.434 25.8117C107.164 26.0534 106.844 26.2739 106.474 26.473C106.119 26.6721 105.728 26.8428 105.301 26.985C104.889 27.113 104.455 27.2126 104 27.2837C103.545 27.369 103.089 27.4117 102.634 27.4117C101.625 27.4117 100.7 27.2766 99.861 27.0063C99.0361 26.7503 98.3321 26.3734 97.749 25.8757C97.1659 25.3637 96.7108 24.7379 96.3836 23.9983C96.0708 23.2588 95.9143 22.4054 95.9143 21.4383C95.9143 20.4854 96.0636 19.6392 96.3623 18.8997C96.6752 18.1459 97.1019 17.5201 97.6423 17.0223C98.197 16.5103 98.8512 16.1263 99.605 15.8703C100.359 15.6001 101.191 15.465 102.101 15.465C102.954 15.465 103.758 15.593 104.512 15.849C105.265 16.105 105.92 16.4819 106.474 16.9797C107.029 17.4632 107.47 18.0534 107.797 18.7503C108.124 19.4472 108.288 20.2366 108.288 21.1183V22.6117H99.1783C99.349 23.7921 99.7543 24.6383 100.394 25.1503C101.049 25.6623 101.866 25.9183 102.848 25.9183ZM102.101 16.8517C101.689 16.8517 101.305 16.9299 100.949 17.0863C100.593 17.2428 100.281 17.4917 100.01 17.833C99.7543 18.1743 99.541 18.6152 99.3703 19.1557C99.2139 19.6961 99.1285 20.3503 99.1143 21.1183H105.088C105.088 20.3788 105.002 19.7388 104.832 19.1983C104.661 18.6579 104.433 18.217 104.149 17.8757C103.879 17.5201 103.559 17.2641 103.189 17.1077C102.833 16.937 102.471 16.8517 102.101 16.8517ZM119.273 25.8117C120.24 25.8117 121.164 25.6481 122.046 25.321C122.942 24.9797 123.795 24.4321 124.606 23.6783L125.673 24.9583C124.862 25.7121 123.881 26.3094 122.729 26.7503C121.577 27.1912 120.353 27.4117 119.059 27.4117C117.722 27.4117 116.513 27.241 115.433 26.8997C114.366 26.5583 113.449 26.0534 112.681 25.385C111.927 24.7166 111.344 23.8917 110.931 22.9103C110.519 21.929 110.313 20.7983 110.313 19.5183C110.313 18.2383 110.512 17.1077 110.91 16.1263C111.322 15.145 111.898 14.3201 112.638 13.6517C113.392 12.9832 114.295 12.4783 115.347 12.137C116.4 11.7957 117.566 11.625 118.846 11.625C120.14 11.625 121.363 11.8454 122.515 12.2863C123.667 12.7272 124.649 13.3246 125.459 14.0783L124.393 15.3583C123.582 14.6046 122.729 14.0641 121.833 13.737C120.951 13.3957 120.026 13.225 119.059 13.225C118.291 13.225 117.573 13.353 116.905 13.609C116.236 13.8508 115.66 14.2277 115.177 14.7397C114.693 15.2517 114.309 15.9059 114.025 16.7023C113.754 17.4846 113.619 18.4232 113.619 19.5183C113.619 20.6134 113.754 21.5592 114.025 22.3557C114.309 23.1379 114.7 23.785 115.198 24.297C115.71 24.809 116.307 25.193 116.99 25.449C117.687 25.6908 118.448 25.8117 119.273 25.8117ZM133.151 26.025C133.606 26.025 134.033 25.9397 134.431 25.769C134.829 25.5983 135.177 25.3352 135.476 24.9797C135.775 24.6099 136.009 24.1334 136.18 23.5503C136.365 22.9672 136.457 22.2632 136.457 21.4383C136.457 20.6134 136.365 19.9094 136.18 19.3263C136.009 18.7432 135.775 18.2739 135.476 17.9183C135.177 17.5486 134.829 17.2783 134.431 17.1077C134.033 16.937 133.606 16.8517 133.151 16.8517C132.696 16.8517 132.269 16.937 131.871 17.1077C131.473 17.2783 131.124 17.5486 130.825 17.9183C130.527 18.2739 130.285 18.7432 130.1 19.3263C129.929 19.9094 129.844 20.6134 129.844 21.4383C129.844 22.2632 129.929 22.9672 130.1 23.5503C130.285 24.1334 130.527 24.6099 130.825 24.9797C131.124 25.3352 131.473 25.5983 131.871 25.769C132.269 25.9397 132.696 26.025 133.151 26.025ZM133.151 15.465C134.104 15.465 134.978 15.6001 135.775 15.8703C136.585 16.1263 137.275 16.5103 137.844 17.0223C138.413 17.5201 138.854 18.1459 139.167 18.8997C139.494 19.6392 139.657 20.4854 139.657 21.4383C139.657 22.4054 139.494 23.2588 139.167 23.9983C138.854 24.7379 138.413 25.3637 137.844 25.8757C137.275 26.3734 136.585 26.7503 135.775 27.0063C134.978 27.2766 134.104 27.4117 133.151 27.4117C132.184 27.4117 131.302 27.2766 130.505 27.0063C129.709 26.7503 129.026 26.3734 128.457 25.8757C127.889 25.3637 127.441 24.7379 127.113 23.9983C126.801 23.2588 126.644 22.4054 126.644 21.4383C126.644 20.4854 126.801 19.6392 127.113 18.8997C127.441 18.1459 127.889 17.5201 128.457 17.0223C129.026 16.5103 129.709 16.1263 130.505 15.8703C131.302 15.6001 132.184 15.465 133.151 15.465ZM150.541 17.385H147.981C147.014 17.385 146.274 17.6481 145.762 18.1743C145.25 18.6863 144.994 19.4543 144.994 20.4783V26.985H142.008V20.4783C142.008 19.0277 142.463 17.9041 143.373 17.1077C144.297 16.297 145.62 15.8917 147.341 15.8917H150.541V17.385ZM157.993 25.9183C158.69 25.9183 159.337 25.7974 159.935 25.5557C160.546 25.3139 161.144 24.9726 161.727 24.5317L162.58 25.8117C162.31 26.0534 161.99 26.2739 161.62 26.473C161.265 26.6721 160.873 26.8428 160.447 26.985C160.034 27.113 159.601 27.2126 159.145 27.2837C158.69 27.369 158.235 27.4117 157.78 27.4117C156.77 27.4117 155.846 27.2766 155.007 27.0063C154.182 26.7503 153.478 26.3734 152.895 25.8757C152.312 25.3637 151.857 24.7379 151.529 23.9983C151.217 23.2588 151.06 22.4054 151.06 21.4383C151.06 20.4854 151.209 19.6392 151.508 18.8997C151.821 18.1459 152.248 17.5201 152.788 17.0223C153.343 16.5103 153.997 16.1263 154.751 15.8703C155.505 15.6001 156.337 15.465 157.247 15.465C158.1 15.465 158.904 15.593 159.657 15.849C160.411 16.105 161.065 16.4819 161.62 16.9797C162.175 17.4632 162.616 18.0534 162.943 18.7503C163.27 19.4472 163.433 20.2366 163.433 21.1183V22.6117H154.324C154.495 23.7921 154.9 24.6383 155.54 25.1503C156.194 25.6623 157.012 25.9183 157.993 25.9183ZM157.247 16.8517C156.834 16.8517 156.45 16.9299 156.095 17.0863C155.739 17.2428 155.426 17.4917 155.156 17.833C154.9 18.1743 154.687 18.6152 154.516 19.1557C154.36 19.6961 154.274 20.3503 154.26 21.1183H160.233C160.233 20.3788 160.148 19.7388 159.977 19.1983C159.807 18.6579 159.579 18.217 159.295 17.8757C159.025 17.5201 158.705 17.2641 158.335 17.1077C157.979 16.937 157.617 16.8517 157.247 16.8517Z" fill="white" fill-opacity="0.6"/>
</svg>
