<svg width="145" height="40" viewBox="0 0 145 40" fill="none" xmlns="http://www.w3.org/2000/svg">
<path fill-rule="evenodd" clip-rule="evenodd" d="M9.78125 14.3993C9.78125 9.5036 14.2279 5.65234 19.5581 5.65234C24.8885 5.65234 29.3351 9.5036 29.3351 14.3993C29.3351 19.2951 24.8885 23.1463 19.5581 23.1463C14.2279 23.1463 9.78125 19.2951 9.78125 14.3993ZM12.1608 14.3994C12.1608 10.6951 15.5254 7.78098 19.5586 7.78098C23.5918 7.78098 26.9564 10.6951 26.9564 14.3994C26.9564 18.1039 23.5918 21.0179 19.5586 21.0179C15.5254 21.0179 12.1608 18.1039 12.1608 14.3994ZM9.78294 20.2301C9.78294 19.7201 9.83121 19.2216 9.92365 18.7374C10.7189 22.901 14.7848 25.9917 19.5598 25.9917C24.3349 25.9917 28.4008 22.901 29.1961 18.7374C29.2885 19.2216 29.3368 19.7201 29.3368 20.2301C29.3368 25.1259 24.8901 28.977 19.5598 28.977C14.2296 28.977 9.78294 25.1259 9.78294 20.2301ZM9.78294 25.3499C9.78294 24.84 9.83121 24.3414 9.92365 23.8573C10.7189 28.0208 14.7848 31.1115 19.5598 31.1115C24.3349 31.1115 28.4008 28.0208 29.1961 23.8573C29.2885 24.3414 29.3368 24.84 29.3368 25.3499C29.3368 30.2457 24.8901 34.0969 19.5598 34.0969C14.2296 34.0969 9.78294 30.2457 9.78294 25.3499Z" fill="white" fill-opacity="0.6"/>
<path d="M47.4375 26.9861V13.2474H53.1975C55.2597 13.2474 56.8099 13.7808 57.8482 14.8474C58.9006 15.8999 59.4268 17.6776 59.4268 20.1808C59.4268 22.5416 58.9077 24.2696 57.8695 25.3648C56.8455 26.4456 55.2882 26.9861 53.1975 26.9861H47.4375ZM50.3175 24.7674H52.7922C53.6028 24.7674 54.2855 24.6465 54.8402 24.4048C55.3948 24.1488 55.8073 23.6936 56.0775 23.0394C56.3619 22.371 56.5042 21.4181 56.5042 20.1808C56.5042 18.9434 56.3762 17.9976 56.1202 17.3434C55.8642 16.6892 55.4659 16.2412 54.9255 15.9994C54.3851 15.7576 53.6739 15.6368 52.7922 15.6368H50.3175V24.7674ZM64.3036 27.1994C63.6636 27.1994 63.0663 27.0856 62.5116 26.8581C61.9712 26.6163 61.5303 26.2679 61.189 25.8128C60.8619 25.3434 60.6983 24.7603 60.6983 24.0634C60.6983 23.0679 61.0467 22.2714 61.7436 21.6741C62.4547 21.0768 63.5001 20.7781 64.8796 20.7781H67.8663V20.5008C67.8663 19.875 67.6885 19.4341 67.333 19.1781C66.9916 18.9221 66.2947 18.7941 65.2423 18.7941C64.0903 18.7941 62.981 18.9719 61.9143 19.3274V17.3008C62.3836 17.1159 62.9525 16.9665 63.621 16.8528C64.3036 16.7248 65.0432 16.6608 65.8396 16.6608C67.3614 16.6608 68.5347 16.9736 69.3596 17.5994C70.1987 18.211 70.6183 19.1994 70.6183 20.5648V26.9861H68.1223L67.973 26.0688C67.5747 26.4243 67.0841 26.7016 66.501 26.9008C65.9179 27.0999 65.1854 27.1994 64.3036 27.1994ZM65.093 25.3008C65.733 25.3008 66.2876 25.1941 66.757 24.9808C67.2263 24.7674 67.5961 24.4972 67.8663 24.1701V22.5701H64.9436C63.8201 22.5701 63.2583 23.0323 63.2583 23.9568C63.2583 24.8528 63.8699 25.3008 65.093 25.3008ZM76.9482 27.1994C75.7819 27.1994 74.9144 26.8936 74.3455 26.2821C73.7908 25.6705 73.5135 24.8385 73.5135 23.7861V19.0928H72.0842V16.8741H73.5135V14.6981L76.3935 13.8448V16.8741H78.9535L78.7828 19.0928H76.3935V23.5941C76.3935 24.1488 76.5215 24.5328 76.7775 24.7461C77.0335 24.9452 77.4317 25.0448 77.9722 25.0448C78.3704 25.0448 78.7828 24.9736 79.2095 24.8314V26.8154C78.8966 26.9434 78.5553 27.0359 78.1855 27.0928C77.8157 27.1639 77.4033 27.1994 76.9482 27.1994ZM83.8662 27.1994C83.2262 27.1994 82.6289 27.0856 82.0742 26.8581C81.5338 26.6163 81.0929 26.2679 80.7515 25.8128C80.4244 25.3434 80.2609 24.7603 80.2609 24.0634C80.2609 23.0679 80.6093 22.2714 81.3062 21.6741C82.0173 21.0768 83.0627 20.7781 84.4422 20.7781H87.4289V20.5008C87.4289 19.875 87.2511 19.4341 86.8955 19.1781C86.5542 18.9221 85.8573 18.7941 84.8048 18.7941C83.6529 18.7941 82.5435 18.9719 81.4769 19.3274V17.3008C81.9462 17.1159 82.5151 16.9665 83.1835 16.8528C83.8662 16.7248 84.6058 16.6608 85.4022 16.6608C86.924 16.6608 88.0973 16.9736 88.9219 17.5994C89.7611 18.211 90.1806 19.1994 90.1806 20.5648V26.9861H87.6849L87.5355 26.0688C87.1373 26.4243 86.6467 26.7016 86.0635 26.9008C85.4804 27.0999 84.748 27.1994 83.8662 27.1994ZM84.6555 25.3008C85.2955 25.3008 85.8502 25.1941 86.3195 24.9808C86.7889 24.7674 87.1587 24.4972 87.4289 24.1701V22.5701H84.5062C83.3827 22.5701 82.8209 23.0323 82.8209 23.9568C82.8209 24.8528 83.4324 25.3008 84.6555 25.3008ZM96.7664 27.1994C95.8846 27.1994 95.0597 27.1354 94.2917 27.0074C93.5379 26.8794 92.8837 26.6945 92.3291 26.4528V23.9141C92.9548 24.1701 93.6304 24.3763 94.3557 24.5328C95.0811 24.6892 95.7922 24.7674 96.4891 24.7674C97.4846 24.7674 98.2171 24.675 98.6864 24.4901C99.1557 24.3052 99.3904 23.8856 99.3904 23.2314C99.3904 22.819 99.2908 22.4919 99.0917 22.2501C98.8926 22.0083 98.5442 21.795 98.0464 21.6101C97.5628 21.411 96.8731 21.1905 95.9771 20.9488C94.5406 20.5505 93.5308 20.0528 92.9477 19.4554C92.3646 18.8581 92.0731 18.0332 92.0731 16.9808C92.0731 15.715 92.5353 14.7408 93.4597 14.0581C94.3842 13.3754 95.7282 13.0341 97.4917 13.0341C98.3166 13.0341 99.0846 13.091 99.7957 13.2048C100.507 13.3185 101.083 13.4536 101.524 13.6101V16.1488C100.357 15.7079 99.1415 15.4874 97.8757 15.4874C96.9797 15.4874 96.2757 15.587 95.7637 15.7861C95.2517 15.971 94.9957 16.3692 94.9957 16.9808C94.9957 17.3363 95.0882 17.6208 95.2731 17.8341C95.4579 18.0474 95.7708 18.2394 96.2117 18.4101C96.6668 18.5808 97.2997 18.7728 98.1104 18.9861C99.2339 19.2848 100.102 19.6403 100.713 20.0528C101.325 20.4652 101.744 20.9345 101.972 21.4608C102.214 21.987 102.334 22.5772 102.334 23.2314C102.334 24.4261 101.879 25.3861 100.969 26.1114C100.059 26.8368 98.6579 27.1994 96.7664 27.1994ZM108.031 27.1994C106.865 27.1994 105.998 26.8936 105.429 26.2821C104.874 25.6705 104.597 24.8385 104.597 23.7861V19.0928H103.167V16.8741H104.597V14.6981L107.477 13.8448V16.8741H110.037L109.866 19.0928H107.477V23.5941C107.477 24.1488 107.605 24.5328 107.861 24.7461C108.117 24.9452 108.515 25.0448 109.055 25.0448C109.454 25.0448 109.866 24.9736 110.293 24.8314V26.8154C109.98 26.9434 109.638 27.0359 109.269 27.0928C108.899 27.1639 108.486 27.1994 108.031 27.1994ZM114.95 27.1994C114.31 27.1994 113.712 27.0856 113.157 26.8581C112.617 26.6163 112.176 26.2679 111.835 25.8128C111.508 25.3434 111.344 24.7603 111.344 24.0634C111.344 23.0679 111.693 22.2714 112.389 21.6741C113.101 21.0768 114.146 20.7781 115.525 20.7781H118.512V20.5008C118.512 19.875 118.334 19.4341 117.979 19.1781C117.638 18.9221 116.941 18.7941 115.888 18.7941C114.736 18.7941 113.627 18.9719 112.56 19.3274V17.3008C113.03 17.1159 113.598 16.9665 114.267 16.8528C114.949 16.7248 115.689 16.6608 116.486 16.6608C118.007 16.6608 119.181 16.9736 120.006 17.5994C120.845 18.211 121.264 19.1994 121.264 20.5648V26.9861H118.768L118.619 26.0688C118.221 26.4243 117.73 26.7016 117.147 26.9008C116.564 27.0999 115.831 27.1994 114.95 27.1994ZM115.739 25.3008C116.379 25.3008 116.933 25.1941 117.403 24.9808C117.872 24.7674 118.242 24.4972 118.512 24.1701V22.5701H115.59C114.466 22.5701 113.904 23.0323 113.904 23.9568C113.904 24.8528 114.516 25.3008 115.739 25.3008ZM128.746 27.1994C126.94 27.1994 125.553 26.7514 124.586 25.8554C123.633 24.9594 123.157 23.651 123.157 21.9301C123.157 20.1523 123.669 18.8296 124.693 17.9621C125.731 17.0945 127.11 16.6608 128.831 16.6608C129.542 16.6608 130.154 16.7105 130.666 16.8101C131.178 16.9096 131.676 17.0732 132.159 17.3008V19.3701C131.804 19.1994 131.391 19.0643 130.922 18.9648C130.453 18.8652 129.948 18.8154 129.407 18.8154C128.326 18.8154 127.502 19.043 126.933 19.4981C126.364 19.939 126.079 20.7496 126.079 21.9301C126.079 23.011 126.335 23.8003 126.847 24.2981C127.373 24.7959 128.22 25.0448 129.386 25.0448C129.884 25.0448 130.367 24.995 130.837 24.8954C131.32 24.7959 131.768 24.6465 132.181 24.4474V26.5808C131.228 26.9932 130.083 27.1994 128.746 27.1994ZM134 26.9861V12.6074H136.88V20.5221L140.656 16.8741H143.942L139.867 21.0128L144.176 26.9861H141.126L138.054 22.5274L136.88 23.6581V26.9861H134Z" fill="white" fill-opacity="0.6"/>
</svg>
