<svg width="42" height="42" viewBox="0 0 42 42" fill="none" xmlns="http://www.w3.org/2000/svg">
<path d="M21 38.5C29.6985 38.5 36.75 31.4485 36.75 22.75C36.75 14.0515 29.6985 7 21 7C12.3015 7 5.25 14.0515 5.25 22.75C5.25 31.4485 12.3015 38.5 21 38.5Z" stroke="#FF3900" stroke-width="2" stroke-linecap="round"/>
<path d="M21 6.125V3.5" stroke="#FF3900" stroke-width="2" stroke-linecap="round" stroke-linejoin="round"/>
<path d="M17.5 3.5H24.5" stroke="#FF3900" stroke-width="2" stroke-linecap="round" stroke-linejoin="round"/>
<path d="M25.8524 17.9499C27.1357 19.2215 25.0824 29.5633 22.9756 29.7454C21.2081 29.8984 20.6572 26.4124 20.285 25.3074C19.9176 24.217 19.5087 23.8243 18.4272 23.4666C15.6798 22.5577 14.3061 22.1032 14.0341 21.3836C13.3139 19.4782 24.2134 16.3258 25.8524 17.9499Z" stroke="#FF3900" stroke-width="2"/>
</svg>
