<svg width="42" height="42" viewBox="0 0 42 42" fill="none" xmlns="http://www.w3.org/2000/svg">
<path d="M21 38.5C30.665 38.5 38.5 30.665 38.5 21C38.5 11.335 30.665 3.5 21 3.5C11.335 3.5 3.5 11.335 3.5 21C3.5 30.665 11.335 38.5 21 38.5Z" stroke="#FF3900" stroke-width="2" stroke-linecap="round" stroke-linejoin="round"/>
<path d="M11.375 35.875L13.8357 26.6473C14.3354 24.7737 14.5852 23.8368 15.2925 23.2934C15.9998 22.75 16.9693 22.75 18.9084 22.75H23.0916C25.0306 22.75 26.0003 22.75 26.7075 23.2934C27.4148 23.8368 27.6647 24.7737 28.1643 26.6473L30.625 35.875" stroke="#FF3900" stroke-width="2" stroke-linejoin="round"/>
<path d="M16.625 22.75L19.3846 16.3817C20.0727 14.7939 20.4167 14 21 14C21.5833 14 21.9273 14.7939 22.6154 16.3817L25.375 22.75" stroke="#FF3900" stroke-width="2" stroke-linecap="round" stroke-linejoin="round"/>
</svg>
